<svg width="368" height="357" viewBox="0 0 368 357" fill="none" xmlns="http://www.w3.org/2000/svg">
<mask id="mask0_44_2098" style="mask-type:alpha" maskUnits="userSpaceOnUse" x="20" y="1" width="308" height="354">
<rect x="85.9072" width="249.105" height="309.531" rx="10" transform="rotate(12.4826 85.9072 0)" fill="#EBEDFF"/>
</mask>
<g mask="url(#mask0_44_2098)">
<path d="M19 0.238647H329V356.239H19V0.238647Z" fill="#FEFEFE"/>
<g filter="url(#filter0_f_44_2098)">
<path d="M236.294 261.384L233.429 260.713L237.187 244.673C253.218 238.155 266.142 224.263 270.437 205.931C279.43 167.549 246.21 131.363 207.203 137.936C210.532 131.464 209.717 124.626 205.501 119.407L205.052 108.425L216.277 114.681L221.646 91.7659L208.81 92.3845L215.066 81.1596L192.152 75.7908L192.77 88.6263L181.545 82.3705L176.176 105.285L189.012 104.667L183.732 114.307C178.209 117.243 173.868 122.874 173.976 130.151C141.948 106.935 96.1122 124.598 87.1195 162.98C82.8244 181.312 88.2322 199.5 99.6992 212.46L95.9411 228.5L93.0767 227.829C88.4938 226.755 83.5442 229.826 82.4704 234.409C81.3967 238.992 84.4672 243.941 89.0501 245.015L232.267 278.57C236.85 279.644 241.799 276.573 242.873 271.991C243.947 267.408 240.876 262.458 236.294 261.384ZM120.198 228.14C116.761 227.335 115.006 224.507 115.811 221.07C116.617 217.632 119.445 215.878 122.882 216.683C126.32 217.488 128.074 220.317 127.269 223.754C126.464 227.191 123.062 228.812 120.198 228.14ZM143.113 233.509C139.675 232.704 137.921 229.876 138.726 226.438C139.531 223.001 142.36 221.247 145.797 222.052C149.234 222.857 150.989 225.686 150.184 229.123C149.378 232.56 145.977 234.18 143.113 233.509ZM154.21 211.937L104.944 200.394C98.2296 190.36 95.624 178.268 98.5768 165.665C106.093 133.584 144.724 120.88 169.439 141.778C170.012 141.913 169.878 142.486 170.451 142.62L154.21 211.937ZM200.253 92.7969C203.691 93.6022 205.445 96.4306 204.64 99.8678C203.835 103.305 201.006 105.06 197.569 104.254C194.132 103.449 192.377 100.621 193.183 97.1834C193.988 93.7462 196.816 91.9916 200.253 92.7969ZM188.845 141.491C192.282 142.296 194.037 145.124 193.231 148.561C192.426 151.999 189.598 153.753 186.16 152.948C182.723 152.143 180.969 149.314 181.774 145.877C182.579 142.44 185.408 140.685 188.845 141.491ZM179.449 181.591C182.887 182.397 184.641 185.225 183.836 188.662C183.03 192.099 180.202 193.854 176.765 193.049C173.328 192.243 171.573 189.415 172.378 185.978C173.184 182.541 176.012 180.786 179.449 181.591ZM166.027 238.878C162.59 238.073 160.836 235.244 161.641 231.807C162.446 228.37 165.275 226.615 168.712 227.421C172.149 228.226 173.904 231.054 173.098 234.492C172.293 237.929 168.892 239.549 166.027 238.878ZM188.942 244.247C185.505 243.441 183.75 240.613 184.556 237.176C185.361 233.739 188.189 231.984 191.626 232.789C195.064 233.595 196.818 236.423 196.013 239.86C195.208 243.298 191.806 244.918 188.942 244.247ZM211.857 249.616C208.42 248.81 206.665 245.982 207.47 242.545C208.276 239.108 211.104 237.353 214.541 238.158C217.978 238.964 219.733 241.792 218.928 245.229C218.122 248.666 214.721 250.287 211.857 249.616ZM188.582 219.99L204.823 150.673C205.396 150.807 205.53 150.234 206.103 150.369C237.529 142.624 266.496 171.166 258.98 203.246C256.027 215.85 248.321 225.526 237.849 231.533L188.582 219.99Z" fill="#F3F3F1"/>
</g>
<g filter="url(#filter1_f_44_2098)">
<path d="M110.814 41.848L110.372 41.7384L110.986 39.2669C113.478 38.2928 115.504 36.1723 116.206 33.3478C117.675 27.434 112.616 21.7721 106.573 22.7072C107.101 21.7138 106.989 20.6551 106.349 19.8398L106.302 18.1414L108.024 19.1316L108.901 15.601L106.916 15.67L107.906 13.948L104.376 13.0706L104.445 15.0558L102.723 14.0656L101.845 17.5963L103.831 17.5273L102.995 19.0064C102.135 19.4488 101.452 20.31 101.454 21.435C96.5516 17.7803 89.4304 20.4154 87.9609 26.3292C87.2591 29.1537 88.0572 31.976 89.8027 34.003L89.1886 36.4744L88.7472 36.3647C88.0411 36.1893 87.2697 36.6536 87.0942 37.3597C86.9188 38.0658 87.3831 38.8372 88.0892 39.0127L110.156 44.496C110.862 44.6715 111.633 44.2071 111.809 43.501C111.984 42.7949 111.52 42.0235 110.814 41.848ZM92.9385 36.4691C92.4089 36.3375 92.1436 35.8967 92.2752 35.3671C92.4068 34.8375 92.8476 34.5722 93.3772 34.7038C93.9068 34.8354 94.1721 35.2761 94.0405 35.8057C93.9089 36.3353 93.3798 36.5787 92.9385 36.4691ZM96.4692 37.3464C95.9396 37.2148 95.6742 36.774 95.8058 36.2444C95.9374 35.7148 96.3782 35.4495 96.9078 35.5811C97.4374 35.7127 97.7027 36.1535 97.5711 36.6831C97.4395 37.2127 96.9105 37.4561 96.4692 37.3464ZM98.2291 34.0351L90.6383 32.1488C89.6214 30.5841 89.2437 28.7097 89.7262 26.7678C90.9545 21.8249 96.9518 19.9414 100.728 23.2228C100.817 23.2447 100.795 23.333 100.883 23.3549L98.2291 34.0351ZM105.593 15.716C106.122 15.8476 106.388 16.2884 106.256 16.8179C106.124 17.3475 105.684 17.6129 105.154 17.4813C104.624 17.3497 104.359 16.9089 104.491 16.3793C104.622 15.8497 105.063 15.5844 105.593 15.716ZM103.728 23.2185C104.258 23.3501 104.523 23.7909 104.392 24.3205C104.26 24.8501 103.819 25.1155 103.29 24.9839C102.76 24.8523 102.495 24.4115 102.626 23.8819C102.758 23.3523 103.199 23.0869 103.728 23.2185ZM102.193 29.3971C102.723 29.5287 102.988 29.9695 102.856 30.4991C102.725 31.0287 102.284 31.2941 101.754 31.1625C101.225 31.0309 100.96 30.5901 101.091 30.0605C101.223 29.5309 101.664 29.2655 102.193 29.3971ZM99.9998 38.2237C99.4702 38.0921 99.2049 37.6513 99.3365 37.1217C99.4681 36.5921 99.9089 36.3268 100.438 36.4584C100.968 36.59 101.233 37.0308 101.102 37.5604C100.97 38.09 100.441 38.3334 99.9998 38.2237ZM103.53 39.1011C103.001 38.9695 102.735 38.5287 102.867 37.9991C102.999 37.4695 103.439 37.2041 103.969 37.3357C104.499 37.4673 104.764 37.9081 104.632 38.4377C104.501 38.9673 103.972 39.2107 103.53 39.1011ZM107.061 39.9784C106.531 39.8468 106.266 39.406 106.398 38.8764C106.529 38.3468 106.97 38.0815 107.5 38.2131C108.029 38.3447 108.295 38.7855 108.163 39.3151C108.031 39.8446 107.502 40.088 107.061 39.9784ZM103.525 35.3511L106.179 24.6709C106.267 24.6929 106.289 24.6046 106.377 24.6265C111.251 23.4946 115.669 27.9662 114.441 32.9091C113.958 34.851 112.747 36.3306 111.116 37.2373L103.525 35.3511Z" fill="#F3F3F1"/>
</g>
<g filter="url(#filter2_f_44_2098)">
<path d="M110.732 41.7342L110.292 41.6249L110.904 39.1623C113.386 38.1917 115.406 36.0788 116.105 33.2643C117.569 27.3717 112.528 21.73 106.507 22.6617C107.033 21.6719 106.921 20.617 106.283 19.8047L106.236 18.1123L107.952 19.099L108.826 15.5809L106.848 15.6497L107.835 13.9339L104.317 13.0597L104.386 15.0378L102.67 14.0511L101.796 17.5691L103.774 17.5004L102.941 18.9742C102.084 19.415 101.404 20.2732 101.405 21.3942C96.5208 17.7525 89.425 20.3781 87.9608 26.2708C87.2614 29.0852 88.0567 31.8975 89.796 33.9172L89.184 36.3798L88.7443 36.2705C88.0407 36.0957 87.272 36.5583 87.0972 37.2619C86.9224 37.9655 87.385 38.7342 88.0886 38.909L110.076 44.3727C110.78 44.5476 111.548 44.0849 111.723 43.3813C111.898 42.6777 111.435 41.9091 110.732 41.7342ZM92.9206 36.3745C92.3929 36.2433 92.1285 35.8041 92.2596 35.2764C92.3908 34.7487 92.83 34.4843 93.3577 34.6155C93.8854 34.7466 94.1498 35.1858 94.0186 35.7135C93.8875 36.2412 93.3603 36.4837 92.9206 36.3745ZM96.4386 37.2487C95.9109 37.1175 95.6465 36.6783 95.7776 36.1506C95.9088 35.6229 96.348 35.3585 96.8757 35.4897C97.4034 35.6208 97.6678 36.06 97.5366 36.5877C97.4055 37.1154 96.8783 37.3579 96.4386 37.2487ZM98.1923 33.9492L90.6286 32.0697C89.6153 30.5106 89.239 28.6428 89.7198 26.7079C90.9436 21.7827 96.9195 19.9059 100.683 23.1756C100.771 23.1974 100.749 23.2854 100.837 23.3072L98.1923 33.9492ZM105.53 15.6955C106.057 15.8267 106.322 16.2659 106.191 16.7936C106.059 17.3213 105.62 17.5857 105.092 17.4545C104.565 17.3234 104.3 16.8842 104.432 16.3565C104.563 15.8288 105.002 15.5644 105.53 15.6955ZM103.672 23.1713C104.2 23.3024 104.464 23.7417 104.333 24.2694C104.202 24.7971 103.763 25.0614 103.235 24.9303C102.707 24.7992 102.443 24.36 102.574 23.8323C102.705 23.3046 103.144 23.0402 103.672 23.1713ZM102.142 29.3278C102.67 29.459 102.934 29.8982 102.803 30.4259C102.672 30.9536 102.233 31.218 101.705 31.0868C101.177 30.9557 100.913 30.5165 101.044 29.9888C101.175 29.4611 101.614 29.1967 102.142 29.3278ZM99.9566 38.1229C99.4289 37.9917 99.1645 37.5525 99.2957 37.0248C99.4268 36.4971 99.866 36.2327 100.394 36.3639C100.921 36.495 101.186 36.9342 101.055 37.4619C100.924 37.9896 100.396 38.2321 99.9566 38.1229ZM103.475 38.9971C102.947 38.8659 102.683 38.4267 102.814 37.899C102.945 37.3713 103.384 37.1069 103.912 37.238C104.439 37.3692 104.704 37.8084 104.573 38.3361C104.442 38.8638 103.914 39.1063 103.475 38.9971ZM106.993 39.8712C106.465 39.7401 106.201 39.3009 106.332 38.7732C106.463 38.2455 106.902 37.9811 107.43 38.1122C107.957 38.2434 108.222 38.6826 108.091 39.2103C107.96 39.738 107.432 39.9805 106.993 39.8712ZM103.469 35.2605L106.114 24.6185C106.202 24.6404 106.224 24.5524 106.311 24.5743C111.167 23.4464 115.57 27.902 114.346 32.8273C113.865 34.7622 112.658 36.2365 111.033 37.14L103.469 35.2605Z" fill="#F3F3F1"/>
</g>
<g filter="url(#filter3_f_44_2098)">
<path d="M252.258 342.418L251.817 342.316L252.387 339.843C254.853 338.831 256.837 336.685 257.489 333.86C258.855 327.943 253.72 322.386 247.716 323.418C248.225 322.42 248.096 321.367 247.444 320.565L247.37 318.874L249.102 319.832L249.917 316.3L247.94 316.402L248.898 314.67L245.366 313.854L245.468 315.831L243.736 314.873L242.92 318.405L244.897 318.303L244.089 319.791C243.24 320.246 242.574 321.115 242.594 322.236C237.649 318.676 230.598 321.42 229.232 327.336C228.58 330.162 229.422 332.96 231.195 334.951L230.624 337.423L230.182 337.321C229.476 337.158 228.715 337.634 228.552 338.34C228.389 339.046 228.864 339.807 229.571 339.97L251.646 345.067C252.353 345.23 253.114 344.754 253.277 344.048C253.44 343.342 252.964 342.581 252.258 342.418ZM234.36 337.356C233.83 337.233 233.558 336.798 233.681 336.269C233.803 335.739 234.238 335.467 234.768 335.589C235.297 335.712 235.569 336.147 235.447 336.676C235.325 337.206 234.801 337.457 234.36 337.356ZM237.892 338.171C237.362 338.049 237.091 337.614 237.213 337.084C237.335 336.554 237.77 336.283 238.3 336.405C238.83 336.527 239.101 336.962 238.979 337.492C238.857 338.022 238.334 338.273 237.892 338.171ZM239.591 334.843L231.997 333.09C230.957 331.548 230.55 329.686 230.999 327.744C232.14 322.799 238.084 320.823 241.901 324.029C241.989 324.049 241.969 324.138 242.057 324.158L239.591 334.843ZM246.623 316.469C247.152 316.592 247.424 317.026 247.302 317.556C247.179 318.086 246.745 318.358 246.215 318.235C245.685 318.113 245.413 317.678 245.536 317.149C245.658 316.619 246.093 316.347 246.623 316.469ZM244.89 323.975C245.42 324.097 245.691 324.532 245.569 325.062C245.447 325.592 245.012 325.863 244.482 325.741C243.952 325.619 243.681 325.184 243.803 324.654C243.925 324.124 244.36 323.853 244.89 323.975ZM243.463 330.156C243.993 330.279 244.264 330.713 244.142 331.243C244.02 331.773 243.585 332.045 243.055 331.922C242.525 331.8 242.254 331.365 242.376 330.835C242.498 330.306 242.933 330.034 243.463 330.156ZM241.424 338.986C240.894 338.864 240.623 338.429 240.745 337.9C240.867 337.37 241.302 337.098 241.832 337.22C242.362 337.343 242.633 337.777 242.511 338.307C242.389 338.837 241.866 339.088 241.424 338.986ZM244.956 339.802C244.426 339.68 244.155 339.245 244.277 338.715C244.399 338.185 244.834 337.914 245.364 338.036C245.894 338.158 246.165 338.593 246.043 339.123C245.921 339.653 245.398 339.904 244.956 339.802ZM248.488 340.617C247.959 340.495 247.687 340.06 247.809 339.53C247.931 339.001 248.366 338.729 248.896 338.851C249.426 338.974 249.698 339.408 249.575 339.938C249.453 340.468 248.93 340.719 248.488 340.617ZM244.889 336.066L247.355 325.381C247.444 325.402 247.464 325.313 247.552 325.334C252.389 324.125 256.865 328.507 255.723 333.452C255.275 335.394 254.093 336.889 252.483 337.819L244.889 336.066Z" fill="#F3F3F1"/>
</g>
</g>
<g filter="url(#filter4_d_44_2098)">
<path d="M273.826 202.248L272.087 192.23L282.001 197.035L276.942 198.406L273.826 202.248Z" fill="#F28164"/>
<path d="M273.826 202.248L272.087 192.23L282.001 197.035L276.942 198.406L273.826 202.248Z" stroke="#D46F55" stroke-width="0.631858"/>
</g>
<mask id="path-8-inside-1_44_2098" fill="white">
<path d="M281 204.69C281 203.839 281.69 203.149 282.54 203.149H354.474C361.944 203.149 368 209.205 368 216.675C368 224.146 361.944 230.201 354.474 230.201H299.485C289.276 230.201 281 221.925 281 211.716V204.69Z"/>
</mask>
<path d="M281 204.69C281 203.839 281.69 203.149 282.54 203.149H354.474C361.944 203.149 368 209.205 368 216.675C368 224.146 361.944 230.201 354.474 230.201H299.485C289.276 230.201 281 221.925 281 211.716V204.69Z" fill="#F28164"/>
<path d="M281 204.69C281 203.839 281.69 203.149 282.54 203.149H354.474C361.944 203.149 368 209.205 368 216.675C368 224.146 361.944 230.201 354.474 230.201H299.485C289.276 230.201 281 221.925 281 211.716V204.69Z" stroke="#D46F55" stroke-width="4" mask="url(#path-8-inside-1_44_2098)"/>
<path d="M298.611 223.049C297.73 223.049 296.949 222.928 296.267 222.687C295.588 222.448 295.016 222.096 294.55 221.63C294.084 221.167 293.73 220.599 293.489 219.925C293.247 219.252 293.126 218.484 293.126 217.62C293.126 216.779 293.249 216.023 293.493 215.353C293.737 214.682 294.092 214.111 294.558 213.64C295.027 213.165 295.597 212.803 296.267 212.553C296.938 212.303 297.699 212.178 298.551 212.178C299.366 212.178 300.085 212.306 300.707 212.562C301.33 212.817 301.852 213.168 302.276 213.614C302.702 214.06 303.023 214.572 303.239 215.148C303.455 215.725 303.562 216.334 303.562 216.976C303.562 217.425 303.534 217.864 303.477 218.293C303.42 218.719 303.315 219.106 303.162 219.452C303.011 219.796 302.793 220.072 302.506 220.279C302.222 220.484 301.852 220.59 301.398 220.599C301.156 220.607 300.922 220.579 300.695 220.513C300.467 220.448 300.274 220.343 300.115 220.198C299.956 220.05 299.859 219.863 299.825 219.636H299.774C299.706 219.803 299.592 219.959 299.433 220.104C299.274 220.246 299.071 220.36 298.824 220.445C298.58 220.528 298.295 220.562 297.972 220.547C297.614 220.533 297.291 220.452 297.004 220.305C296.717 220.157 296.472 219.952 296.267 219.691C296.065 219.43 295.911 219.12 295.803 218.762C295.695 218.404 295.641 218.006 295.641 217.569C295.641 217.148 295.702 216.772 295.824 216.439C295.946 216.104 296.112 215.816 296.322 215.574C296.536 215.33 296.78 215.137 297.055 214.995C297.331 214.853 297.622 214.763 297.929 214.726C298.227 214.692 298.501 214.701 298.751 214.752C299.001 214.803 299.209 214.881 299.374 214.986C299.541 215.091 299.646 215.207 299.689 215.332H299.744V214.854H300.793V218.809C300.793 219.033 300.851 219.224 300.967 219.38C301.087 219.536 301.256 219.614 301.474 219.614C301.733 219.614 301.935 219.519 302.08 219.329C302.227 219.138 302.331 218.846 302.391 218.451C302.453 218.056 302.484 217.55 302.484 216.934C302.484 216.502 302.426 216.096 302.31 215.715C302.196 215.332 302.027 214.985 301.803 214.675C301.581 214.363 301.308 214.094 300.984 213.87C300.661 213.645 300.291 213.472 299.876 213.35C299.464 213.228 299.009 213.167 298.509 213.167C297.83 213.167 297.226 213.272 296.697 213.482C296.169 213.689 295.723 213.989 295.359 214.381C294.999 214.773 294.724 215.243 294.537 215.792C294.352 216.337 294.26 216.949 294.26 217.628C294.26 218.336 294.355 218.964 294.545 219.512C294.736 220.057 295.017 220.518 295.389 220.893C295.761 221.268 296.222 221.552 296.77 221.745C297.318 221.941 297.95 222.039 298.666 222.039C298.984 222.039 299.297 222.011 299.604 221.954C299.911 221.9 300.183 221.837 300.422 221.766C300.663 221.698 300.844 221.643 300.963 221.6L301.261 222.533C301.085 222.616 300.851 222.697 300.558 222.776C300.268 222.856 299.953 222.921 299.612 222.972C299.274 223.023 298.94 223.049 298.611 223.049ZM298.219 219.503C298.588 219.503 298.885 219.43 299.109 219.282C299.337 219.134 299.5 218.914 299.599 218.621C299.702 218.326 299.753 217.957 299.753 217.513C299.75 217.082 299.695 216.738 299.587 216.482C299.482 216.224 299.317 216.039 299.092 215.928C298.871 215.814 298.585 215.758 298.236 215.758C297.915 215.758 297.641 215.836 297.413 215.992C297.189 216.148 297.017 216.36 296.898 216.627C296.781 216.894 296.722 217.191 296.719 217.518C296.722 217.861 296.77 218.185 296.864 218.489C296.96 218.79 297.116 219.035 297.332 219.222C297.551 219.41 297.847 219.503 298.219 219.503ZM304.97 220.675V214.13H306.193V215.195H306.274C306.41 214.834 306.633 214.553 306.943 214.351C307.252 214.147 307.623 214.045 308.055 214.045C308.493 214.045 308.859 214.147 309.154 214.351C309.453 214.556 309.673 214.837 309.815 215.195H309.883C310.039 214.846 310.288 214.567 310.629 214.36C310.97 214.15 311.376 214.045 311.848 214.045C312.441 214.045 312.926 214.231 313.301 214.603C313.679 214.975 313.868 215.536 313.868 216.286V220.675H312.593V216.405C312.593 215.962 312.473 215.641 312.231 215.442C311.99 215.243 311.701 215.144 311.366 215.144C310.951 215.144 310.629 215.272 310.399 215.528C310.169 215.78 310.054 216.106 310.054 216.503V220.675H308.784V216.324C308.784 215.969 308.673 215.684 308.451 215.468C308.23 215.252 307.941 215.144 307.586 215.144C307.345 215.144 307.122 215.208 306.917 215.336C306.716 215.461 306.552 215.636 306.427 215.86C306.305 216.084 306.244 216.344 306.244 216.64V220.675H304.97ZM317.48 220.82C317.065 220.82 316.69 220.743 316.355 220.59C316.02 220.434 315.754 220.208 315.558 219.913C315.365 219.617 315.268 219.255 315.268 218.826C315.268 218.457 315.339 218.153 315.482 217.914C315.624 217.675 315.815 217.486 316.057 217.347C316.298 217.208 316.568 217.103 316.866 217.032C317.165 216.961 317.469 216.907 317.778 216.87C318.17 216.824 318.489 216.788 318.733 216.759C318.977 216.728 319.155 216.678 319.266 216.61C319.376 216.542 319.432 216.431 319.432 216.278V216.248C319.432 215.876 319.327 215.587 319.116 215.383C318.909 215.178 318.599 215.076 318.188 215.076C317.759 215.076 317.42 215.171 317.173 215.361C316.929 215.549 316.76 215.758 316.666 215.988L315.469 215.715C315.611 215.317 315.818 214.996 316.091 214.752C316.366 214.505 316.683 214.326 317.041 214.215C317.399 214.101 317.776 214.045 318.17 214.045C318.432 214.045 318.709 214.076 319.001 214.138C319.297 214.198 319.572 214.309 319.828 214.471C320.087 214.633 320.298 214.864 320.463 215.165C320.628 215.464 320.71 215.851 320.71 216.329V220.675H319.466V219.78H319.415C319.332 219.945 319.209 220.107 319.044 220.266C318.879 220.425 318.668 220.557 318.409 220.663C318.151 220.768 317.841 220.82 317.48 220.82ZM317.757 219.797C318.109 219.797 318.411 219.728 318.661 219.589C318.913 219.449 319.105 219.268 319.236 219.043C319.369 218.816 319.436 218.573 319.436 218.314V217.471C319.391 217.516 319.303 217.559 319.172 217.599C319.044 217.636 318.898 217.668 318.733 217.697C318.568 217.722 318.408 217.746 318.251 217.769C318.095 217.789 317.964 217.806 317.859 217.82C317.612 217.851 317.386 217.904 317.182 217.978C316.98 218.052 316.818 218.158 316.696 218.297C316.577 218.434 316.517 218.616 316.517 218.843C316.517 219.158 316.634 219.397 316.866 219.559C317.099 219.718 317.396 219.797 317.757 219.797ZM322.407 220.675V214.13H323.681V220.675H322.407ZM323.051 213.12C322.829 213.12 322.639 213.046 322.48 212.898C322.324 212.748 322.245 212.569 322.245 212.361C322.245 212.151 322.324 211.972 322.48 211.824C322.639 211.674 322.829 211.599 323.051 211.599C323.272 211.599 323.461 211.674 323.618 211.824C323.777 211.972 323.856 212.151 323.856 212.361C323.856 212.569 323.777 212.748 323.618 212.898C323.461 213.046 323.272 213.12 323.051 213.12ZM330.3 215.728L329.146 215.932C329.097 215.785 329.021 215.644 328.915 215.511C328.813 215.377 328.674 215.268 328.498 215.182C328.322 215.097 328.102 215.055 327.837 215.055C327.477 215.055 327.175 215.136 326.934 215.297C326.692 215.457 326.572 215.663 326.572 215.915C326.572 216.134 326.653 216.31 326.815 216.444C326.977 216.577 327.238 216.687 327.599 216.772L328.638 217.011C329.241 217.15 329.69 217.364 329.985 217.654C330.281 217.944 330.428 218.32 330.428 218.783C330.428 219.175 330.315 219.525 330.087 219.832C329.863 220.136 329.549 220.374 329.146 220.547C328.745 220.721 328.281 220.807 327.752 220.807C327.019 220.807 326.421 220.651 325.958 220.339C325.495 220.023 325.211 219.576 325.106 218.996L326.337 218.809C326.414 219.13 326.572 219.373 326.81 219.538C327.049 219.699 327.36 219.78 327.744 219.78C328.161 219.78 328.495 219.694 328.745 219.52C328.995 219.344 329.12 219.13 329.12 218.877C329.12 218.672 329.043 218.501 328.89 218.361C328.739 218.222 328.508 218.117 328.195 218.046L327.087 217.803C326.477 217.664 326.025 217.442 325.732 217.138C325.442 216.834 325.298 216.449 325.298 215.984C325.298 215.597 325.406 215.259 325.621 214.969C325.837 214.68 326.136 214.454 326.516 214.292C326.897 214.127 327.333 214.045 327.825 214.045C328.532 214.045 329.089 214.198 329.495 214.505C329.901 214.809 330.17 215.216 330.3 215.728ZM333.103 211.948V220.675H331.829V211.948H333.103ZM334.817 220.675V214.13H336.092V220.675H334.817ZM335.461 213.12C335.239 213.12 335.049 213.046 334.89 212.898C334.734 212.748 334.656 212.569 334.656 212.361C334.656 212.151 334.734 211.972 334.89 211.824C335.049 211.674 335.239 211.599 335.461 211.599C335.683 211.599 335.871 211.674 336.028 211.824C336.187 211.972 336.266 212.151 336.266 212.361C336.266 212.569 336.187 212.748 336.028 212.898C335.871 213.046 335.683 213.12 335.461 213.12ZM339.08 216.789V220.675H337.806V214.13H339.029V215.195H339.11C339.26 214.849 339.496 214.57 339.817 214.36C340.141 214.15 340.549 214.045 341.04 214.045C341.486 214.045 341.877 214.138 342.212 214.326C342.547 214.511 342.807 214.786 342.992 215.153C343.176 215.519 343.269 215.972 343.269 216.512V220.675H341.995V216.665C341.995 216.191 341.871 215.82 341.624 215.553C341.377 215.283 341.037 215.148 340.605 215.148C340.31 215.148 340.047 215.212 339.817 215.34C339.59 215.468 339.409 215.655 339.276 215.903C339.145 216.147 339.08 216.442 339.08 216.789ZM346.882 220.82C346.468 220.82 346.093 220.743 345.757 220.59C345.422 220.434 345.157 220.208 344.961 219.913C344.767 219.617 344.671 219.255 344.671 218.826C344.671 218.457 344.742 218.153 344.884 217.914C345.026 217.675 345.218 217.486 345.459 217.347C345.701 217.208 345.971 217.103 346.269 217.032C346.567 216.961 346.871 216.907 347.181 216.87C347.573 216.824 347.891 216.788 348.135 216.759C348.38 216.728 348.557 216.678 348.668 216.61C348.779 216.542 348.834 216.431 348.834 216.278V216.248C348.834 215.876 348.729 215.587 348.519 215.383C348.311 215.178 348.002 215.076 347.59 215.076C347.161 215.076 346.823 215.171 346.576 215.361C346.331 215.549 346.162 215.758 346.069 215.988L344.871 215.715C345.013 215.317 345.221 214.996 345.493 214.752C345.769 214.505 346.086 214.326 346.444 214.215C346.801 214.101 347.178 214.045 347.573 214.045C347.834 214.045 348.111 214.076 348.404 214.138C348.699 214.198 348.975 214.309 349.23 214.471C349.489 214.633 349.701 214.864 349.865 215.165C350.03 215.464 350.113 215.851 350.113 216.329V220.675H348.868V219.78H348.817C348.735 219.945 348.611 220.107 348.446 220.266C348.282 220.425 348.07 220.557 347.811 220.663C347.553 220.768 347.243 220.82 346.882 220.82ZM347.159 219.797C347.512 219.797 347.813 219.728 348.063 219.589C348.316 219.449 348.507 219.268 348.638 219.043C348.772 218.816 348.838 218.573 348.838 218.314V217.471C348.793 217.516 348.705 217.559 348.574 217.599C348.446 217.636 348.3 217.668 348.135 217.697C347.971 217.722 347.81 217.746 347.654 217.769C347.498 217.789 347.367 217.806 347.262 217.82C347.015 217.851 346.789 217.904 346.584 217.978C346.382 218.052 346.221 218.158 346.098 218.297C345.979 218.434 345.919 218.616 345.919 218.843C345.919 219.158 346.036 219.397 346.269 219.559C346.502 219.718 346.799 219.797 347.159 219.797ZM356.484 220.675V221.758H350.94V220.675H356.484Z" fill="#FEFEFE"/>
<g filter="url(#filter5_d_44_2098)">
<path d="M125.174 292.422L126.913 282.403L116.999 287.209L122.058 288.58L125.174 292.422Z" fill="#F588B9"/>
</g>
<mask id="path-11-inside-2_44_2098" fill="white">
<path d="M106.5 294.54C106.5 293.69 105.81 293 104.96 293H25.026C17.5558 293 11.5 299.056 11.5 306.526V306.526C11.5 313.996 17.5558 320.052 25.026 320.052H88.0149C98.2239 320.052 106.5 311.776 106.5 301.567V294.54Z"/>
</mask>
<path d="M106.5 294.54C106.5 293.69 105.81 293 104.96 293H25.026C17.5558 293 11.5 299.056 11.5 306.526V306.526C11.5 313.996 17.5558 320.052 25.026 320.052H88.0149C98.2239 320.052 106.5 311.776 106.5 301.567V294.54Z" fill="#F588B9"/>
<path d="M106.5 294.54C106.5 293.69 105.81 293 104.96 293H25.026C17.5558 293 11.5 299.056 11.5 306.526V306.526C11.5 313.996 17.5558 320.052 25.026 320.052H88.0149C98.2239 320.052 106.5 311.776 106.5 301.567V294.54Z" stroke="#D6699A" stroke-width="4" mask="url(#path-11-inside-2_44_2098)"/>
<path d="M29.6108 312.9C28.7301 312.9 27.9489 312.779 27.267 312.537C26.5881 312.299 26.0156 311.946 25.5497 311.481C25.0838 311.017 24.7301 310.449 24.4886 309.776C24.2472 309.103 24.1264 308.334 24.1264 307.471C24.1264 306.63 24.2486 305.874 24.4929 305.204C24.7372 304.533 25.0923 303.962 25.5582 303.49C26.027 303.016 26.5966 302.654 27.267 302.404C27.9375 302.154 28.6989 302.029 29.5511 302.029C30.3665 302.029 31.0852 302.157 31.7074 302.412C32.3295 302.668 32.8523 303.019 33.2756 303.465C33.7017 303.911 34.0227 304.422 34.2386 304.999C34.4545 305.576 34.5625 306.185 34.5625 306.827C34.5625 307.276 34.5341 307.715 34.4773 308.144C34.4205 308.57 34.3153 308.956 34.1619 309.303C34.0114 309.647 33.7926 309.922 33.5057 310.13C33.2216 310.334 32.8523 310.441 32.3977 310.449C32.1563 310.458 31.9219 310.429 31.6946 310.364C31.4673 310.299 31.2741 310.194 31.1151 310.049C30.956 309.901 30.8594 309.714 30.8253 309.486H30.7741C30.706 309.654 30.5923 309.81 30.4332 309.955C30.2741 310.097 30.071 310.211 29.8239 310.296C29.5795 310.378 29.2955 310.412 28.9716 310.398C28.6136 310.384 28.2912 310.303 28.0043 310.155C27.7173 310.008 27.4716 309.803 27.267 309.542C27.0653 309.28 26.9105 308.971 26.8026 308.613C26.6946 308.255 26.6406 307.857 26.6406 307.419C26.6406 306.999 26.7017 306.623 26.8239 306.29C26.946 305.955 27.1122 305.667 27.3224 305.425C27.5355 305.181 27.7798 304.988 28.0554 304.846C28.331 304.704 28.6222 304.614 28.929 304.577C29.2273 304.543 29.5014 304.552 29.7514 304.603C30.0014 304.654 30.2088 304.732 30.3736 304.837C30.5412 304.942 30.6463 305.057 30.6889 305.182H30.7443V304.705H31.7926V308.66C31.7926 308.884 31.8509 309.074 31.9673 309.231C32.0866 309.387 32.2557 309.465 32.4744 309.465C32.733 309.465 32.9347 309.37 33.0795 309.179C33.2273 308.989 33.331 308.696 33.3906 308.302C33.4531 307.907 33.4844 307.401 33.4844 306.785C33.4844 306.353 33.4261 305.946 33.3097 305.566C33.196 305.182 33.027 304.836 32.8026 304.526C32.581 304.214 32.3082 303.945 31.9844 303.721C31.6605 303.496 31.2912 303.323 30.8764 303.201C30.4645 303.079 30.0085 303.017 29.5085 303.017C28.8295 303.017 28.2259 303.123 27.6974 303.333C27.169 303.54 26.723 303.84 26.3594 304.232C25.9986 304.624 25.7244 305.094 25.5369 305.642C25.3523 306.188 25.2599 306.8 25.2599 307.479C25.2599 308.187 25.3551 308.814 25.5455 309.363C25.7358 309.908 26.017 310.368 26.3892 310.743C26.7614 311.118 27.2216 311.402 27.7699 311.596C28.3182 311.792 28.9503 311.89 29.6662 311.89C29.9844 311.89 30.2969 311.861 30.6037 311.804C30.9105 311.75 31.1832 311.688 31.4219 311.617C31.6634 311.549 31.8438 311.493 31.9631 311.451L32.2614 312.384C32.0852 312.466 31.8509 312.547 31.5582 312.627C31.2685 312.706 30.9531 312.772 30.6122 312.823C30.2741 312.874 29.9403 312.9 29.6108 312.9ZM29.2188 309.354C29.5881 309.354 29.8849 309.28 30.1094 309.133C30.3366 308.985 30.5 308.765 30.5994 308.472C30.7017 308.177 30.7528 307.807 30.7528 307.364C30.75 306.932 30.6946 306.589 30.5866 306.333C30.4815 306.074 30.3168 305.89 30.0923 305.779C29.8707 305.665 29.5852 305.608 29.2358 305.608C28.9148 305.608 28.6406 305.687 28.4134 305.843C28.1889 305.999 28.017 306.211 27.8977 306.478C27.7813 306.745 27.7216 307.042 27.7188 307.368C27.7216 307.712 27.7699 308.036 27.8636 308.34C27.9602 308.641 28.1165 308.885 28.3324 309.073C28.5511 309.26 28.8466 309.354 29.2188 309.354ZM38.4201 310.654C37.8917 310.654 37.4201 310.519 37.0053 310.249C36.5934 309.976 36.2695 309.589 36.0337 309.086C35.8008 308.58 35.6843 307.973 35.6843 307.266C35.6843 306.559 35.8022 305.954 36.038 305.451C36.2766 304.948 36.6033 304.563 37.0181 304.296C37.4329 304.029 37.9031 303.895 38.4286 303.895C38.8349 303.895 39.1616 303.964 39.4087 304.1C39.6587 304.233 39.8519 304.39 39.9883 304.569C40.1275 304.748 40.2354 304.905 40.3121 305.042H40.3888V301.799H41.663V310.526H40.4187V309.508H40.3121C40.2354 309.647 40.1246 309.806 39.9798 309.985C39.8377 310.164 39.6417 310.32 39.3917 310.454C39.1417 310.587 38.8178 310.654 38.4201 310.654ZM38.7013 309.567C39.0678 309.567 39.3775 309.471 39.6303 309.277C39.886 309.081 40.0792 308.81 40.2099 308.464C40.3434 308.117 40.4102 307.714 40.4102 307.253C40.4102 306.799 40.3448 306.401 40.2141 306.06C40.0835 305.719 39.8917 305.454 39.6388 305.263C39.386 305.073 39.0735 304.978 38.7013 304.978C38.3178 304.978 37.9982 305.077 37.7425 305.276C37.4869 305.475 37.2937 305.746 37.163 306.09C37.0352 306.434 36.9712 306.821 36.9712 307.253C36.9712 307.691 37.0366 308.084 37.1673 308.434C37.2979 308.783 37.4911 309.06 37.7468 309.265C38.0053 309.466 38.3235 309.567 38.7013 309.567ZM46.3026 310.658C45.6577 310.658 45.1023 310.52 44.6364 310.245C44.1733 309.966 43.8153 309.576 43.5625 309.073C43.3125 308.567 43.1875 307.975 43.1875 307.296C43.1875 306.625 43.3125 306.035 43.5625 305.523C43.8153 305.012 44.1676 304.613 44.6193 304.326C45.0739 304.039 45.6051 303.895 46.2131 303.895C46.5824 303.895 46.9403 303.956 47.2869 304.079C47.6335 304.201 47.9446 304.392 48.2202 304.654C48.4957 304.915 48.7131 305.255 48.8722 305.672C49.0313 306.087 49.1108 306.591 49.1108 307.185V307.637H43.9077V306.682H47.8622C47.8622 306.347 47.794 306.05 47.6577 305.792C47.5213 305.53 47.3295 305.324 47.0824 305.174C46.8381 305.023 46.5511 304.948 46.2216 304.948C45.8636 304.948 45.5511 305.036 45.2841 305.212C45.0199 305.385 44.8153 305.613 44.6705 305.894C44.5284 306.172 44.4574 306.475 44.4574 306.802V307.547C44.4574 307.985 44.5341 308.357 44.6875 308.664C44.8438 308.971 45.0611 309.205 45.3395 309.367C45.6179 309.526 45.9432 309.606 46.3153 309.606C46.5568 309.606 46.777 309.571 46.9759 309.503C47.1747 309.432 47.3466 309.327 47.4915 309.188C47.6364 309.049 47.7472 308.877 47.8239 308.672L49.0298 308.89C48.9332 309.245 48.7599 309.556 48.5099 309.823C48.2628 310.087 47.9517 310.293 47.5767 310.441C47.2045 310.586 46.7798 310.658 46.3026 310.658ZM55.9364 303.981L53.5629 310.526H52.1992L49.8214 303.981H51.1893L52.8469 309.017H52.9151L54.5685 303.981H55.9364ZM60.8594 310.526V311.608H55.3153V310.526H60.8594ZM66.3544 303.981L63.9808 310.526H62.6172L60.2393 303.981H61.6072L63.2649 309.017H63.3331L64.9865 303.981H66.3544ZM69.2692 310.671C68.8544 310.671 68.4794 310.594 68.1442 310.441C67.8089 310.285 67.5433 310.059 67.3473 309.763C67.1541 309.468 67.0575 309.106 67.0575 308.677C67.0575 308.307 67.1286 308.003 67.2706 307.765C67.4126 307.526 67.6044 307.337 67.8459 307.198C68.0874 307.059 68.3572 306.954 68.6555 306.883C68.9538 306.812 69.2578 306.758 69.5675 306.721C69.9595 306.675 70.2777 306.638 70.522 306.61C70.7663 306.579 70.9439 306.529 71.0547 306.461C71.1655 306.392 71.2209 306.282 71.2209 306.128V306.098C71.2209 305.726 71.1158 305.438 70.9055 305.233C70.6982 305.029 70.3885 304.927 69.9766 304.927C69.5476 304.927 69.2095 305.022 68.9624 305.212C68.718 305.4 68.549 305.608 68.4553 305.839L67.2578 305.566C67.3999 305.168 67.6072 304.847 67.88 304.603C68.1555 304.356 68.4723 304.177 68.8303 304.066C69.1882 303.952 69.5646 303.895 69.9595 303.895C70.2209 303.895 70.4979 303.927 70.7905 303.989C71.0859 304.049 71.3615 304.16 71.6172 304.321C71.8757 304.483 72.0874 304.715 72.2521 305.016C72.4169 305.314 72.4993 305.702 72.4993 306.179V310.526H71.255V309.631H71.2038C71.1214 309.796 70.9979 309.958 70.8331 310.117C70.6683 310.276 70.4567 310.408 70.1982 310.513C69.9396 310.618 69.63 310.671 69.2692 310.671ZM69.5462 309.648C69.8984 309.648 70.1996 309.579 70.4496 309.439C70.7024 309.3 70.8942 309.118 71.0249 308.894C71.1584 308.667 71.2251 308.424 71.2251 308.165V307.321C71.1797 307.367 71.0916 307.41 70.9609 307.449C70.8331 307.486 70.6868 307.519 70.522 307.547C70.3572 307.573 70.1967 307.597 70.0405 307.62C69.8842 307.64 69.7536 307.657 69.6484 307.671C69.4013 307.702 69.1754 307.755 68.9709 307.829C68.7692 307.902 68.6072 308.009 68.4851 308.148C68.3658 308.285 68.3061 308.466 68.3061 308.694C68.3061 309.009 68.4226 309.248 68.6555 309.41C68.8885 309.569 69.1854 309.648 69.5462 309.648ZM79.1012 305.579L77.9464 305.783C77.8981 305.635 77.8214 305.495 77.7163 305.361C77.614 305.228 77.4748 305.118 77.2987 305.033C77.1225 304.948 76.9023 304.905 76.6381 304.905C76.2773 304.905 75.9762 304.986 75.7347 305.148C75.4933 305.307 75.3725 305.513 75.3725 305.766C75.3725 305.985 75.4535 306.161 75.6154 306.294C75.7773 306.428 76.0387 306.537 76.3995 306.623L77.4393 306.861C78.0415 307 78.4904 307.215 78.7859 307.505C79.0813 307.794 79.229 308.171 79.229 308.634C79.229 309.026 79.1154 309.375 78.8881 309.682C78.6637 309.986 78.3498 310.225 77.9464 310.398C77.5458 310.571 77.0813 310.658 76.5529 310.658C75.82 310.658 75.2219 310.502 74.7589 310.189C74.2958 309.874 74.0117 309.427 73.9066 308.847L75.1381 308.66C75.2148 308.981 75.3725 309.223 75.6112 309.388C75.8498 309.55 76.1609 309.631 76.5444 309.631C76.962 309.631 77.2958 309.544 77.5458 309.371C77.7958 309.195 77.9208 308.981 77.9208 308.728C77.9208 308.523 77.8441 308.351 77.6907 308.212C77.5401 308.073 77.3086 307.968 76.9961 307.897L75.8881 307.654C75.2773 307.515 74.8256 307.293 74.533 306.989C74.2433 306.685 74.0984 306.3 74.0984 305.834C74.0984 305.448 74.2063 305.11 74.4222 304.82C74.6381 304.53 74.9364 304.304 75.3171 304.142C75.6978 303.978 76.1339 303.895 76.6254 303.895C77.3327 303.895 77.8896 304.049 78.2958 304.356C78.7021 304.66 78.9705 305.067 79.1012 305.579ZM83.3871 310.658C82.7536 310.658 82.2081 310.515 81.7507 310.228C81.2962 309.938 80.9467 309.539 80.7024 309.03C80.4581 308.522 80.3359 307.939 80.3359 307.283C80.3359 306.618 80.4609 306.032 80.7109 305.523C80.9609 305.012 81.3132 304.613 81.7678 304.326C82.2223 304.039 82.7578 303.895 83.3743 303.895C83.8714 303.895 84.3146 303.988 84.7038 304.172C85.093 304.354 85.407 304.61 85.6456 304.939C85.8871 305.269 86.0305 305.654 86.076 306.094H84.8359C84.7678 305.787 84.6115 305.523 84.3672 305.302C84.1257 305.08 83.8018 304.969 83.3956 304.969C83.0405 304.969 82.7294 305.063 82.4624 305.25C82.1982 305.435 81.9922 305.699 81.8445 306.043C81.6967 306.384 81.6229 306.787 81.6229 307.253C81.6229 307.731 81.6953 308.142 81.8402 308.489C81.9851 308.836 82.1896 309.104 82.4538 309.294C82.7209 309.485 83.0348 309.58 83.3956 309.58C83.6371 309.58 83.8558 309.536 84.0518 309.448C84.2507 309.357 84.4169 309.228 84.5504 309.06C84.6868 308.892 84.782 308.691 84.8359 308.455H86.076C86.0305 308.878 85.8928 309.256 85.6626 309.589C85.4325 309.921 85.1243 310.182 84.7379 310.373C84.3544 310.563 83.9041 310.658 83.3871 310.658ZM90.1957 310.658C89.582 310.658 89.0465 310.517 88.5891 310.236C88.1317 309.955 87.7766 309.562 87.5238 309.056C87.271 308.55 87.1445 307.959 87.1445 307.283C87.1445 306.604 87.271 306.01 87.5238 305.502C87.7766 304.993 88.1317 304.598 88.5891 304.317C89.0465 304.036 89.582 303.895 90.1957 303.895C90.8093 303.895 91.3448 304.036 91.8022 304.317C92.2596 304.598 92.6147 304.993 92.8675 305.502C93.1204 306.01 93.2468 306.604 93.2468 307.283C93.2468 307.959 93.1204 308.55 92.8675 309.056C92.6147 309.562 92.2596 309.955 91.8022 310.236C91.3448 310.517 90.8093 310.658 90.1957 310.658ZM90.1999 309.589C90.5977 309.589 90.9272 309.483 91.1886 309.273C91.4499 309.063 91.6431 308.783 91.7681 308.434C91.896 308.084 91.9599 307.699 91.9599 307.279C91.9599 306.861 91.896 306.478 91.7681 306.128C91.6431 305.776 91.4499 305.493 91.1886 305.28C90.9272 305.067 90.5977 304.961 90.1999 304.961C89.7994 304.961 89.467 305.067 89.2028 305.28C88.9414 305.493 88.7468 305.776 88.619 306.128C88.494 306.478 88.4315 306.861 88.4315 307.279C88.4315 307.699 88.494 308.084 88.619 308.434C88.7468 308.783 88.9414 309.063 89.2028 309.273C89.467 309.483 89.7994 309.589 90.1999 309.589Z" fill="#FEFEFE"/>
<g filter="url(#filter6_d_44_2098)">
<path d="M245.826 319.474L244.087 309.455L254.001 314.261L248.942 315.632L245.826 319.474Z" fill="#6B93C0"/>
<path d="M245.826 319.474L244.087 309.455L254.001 314.261L248.942 315.632L245.826 319.474Z" stroke="#6B93C0" stroke-width="0.631858"/>
</g>
<mask id="path-14-inside-3_44_2098" fill="white">
<path d="M253 321.915C253 321.064 253.69 320.375 254.54 320.375H345.474C352.944 320.375 359 326.431 359 333.901C359 341.371 352.944 347.427 345.474 347.427H271.485C261.276 347.427 253 339.151 253 328.942V321.915Z"/>
</mask>
<path d="M253 321.915C253 321.064 253.69 320.375 254.54 320.375H345.474C352.944 320.375 359 326.431 359 333.901C359 341.371 352.944 347.427 345.474 347.427H271.485C261.276 347.427 253 339.151 253 328.942V321.915Z" fill="#6B93C0"/>
<path d="M253 321.915C253 321.064 253.69 320.375 254.54 320.375H345.474C352.944 320.375 359 326.431 359 333.901C359 341.371 352.944 347.427 345.474 347.427H271.485C261.276 347.427 253 339.151 253 328.942V321.915Z" stroke="#6B93C0" stroke-width="4" mask="url(#path-14-inside-3_44_2098)"/>
<path d="M271.072 339.017C270.192 339.017 269.411 338.896 268.729 338.655C268.05 338.416 267.477 338.066 267.011 337.602C266.545 337.137 266.192 336.567 265.95 335.894C265.709 335.22 265.588 334.452 265.588 333.588C265.588 332.747 265.71 331.992 265.955 331.321C266.199 330.651 266.554 330.08 267.02 329.608C267.489 329.134 268.058 328.771 268.729 328.521C269.399 328.271 270.161 328.146 271.013 328.146C271.828 328.146 272.547 328.274 273.169 328.53C273.791 328.786 274.314 329.137 274.737 329.583C275.163 330.029 275.484 330.54 275.7 331.117C275.916 331.693 276.024 332.303 276.024 332.945C276.024 333.394 275.996 333.833 275.939 334.262C275.882 334.688 275.777 335.074 275.624 335.421C275.473 335.764 275.254 336.04 274.967 336.247C274.683 336.452 274.314 336.558 273.859 336.567C273.618 336.575 273.384 336.547 273.156 336.482C272.929 336.416 272.736 336.311 272.577 336.166C272.418 336.019 272.321 335.831 272.287 335.604H272.236C272.168 335.771 272.054 335.928 271.895 336.073C271.736 336.215 271.533 336.328 271.286 336.414C271.041 336.496 270.757 336.53 270.433 336.516C270.075 336.502 269.753 336.421 269.466 336.273C269.179 336.125 268.933 335.921 268.729 335.659C268.527 335.398 268.372 335.088 268.264 334.73C268.156 334.372 268.102 333.975 268.102 333.537C268.102 333.117 268.163 332.74 268.286 332.408C268.408 332.073 268.574 331.784 268.784 331.543C268.997 331.298 269.241 331.105 269.517 330.963C269.793 330.821 270.084 330.732 270.391 330.695C270.689 330.661 270.963 330.669 271.213 330.72C271.463 330.771 271.67 330.85 271.835 330.955C272.003 331.06 272.108 331.175 272.151 331.3H272.206V330.823H273.254V334.777C273.254 335.002 273.313 335.192 273.429 335.348C273.548 335.504 273.717 335.583 273.936 335.583C274.195 335.583 274.396 335.487 274.541 335.297C274.689 335.107 274.793 334.814 274.852 334.419C274.915 334.024 274.946 333.519 274.946 332.902C274.946 332.47 274.888 332.064 274.771 331.683C274.658 331.3 274.489 330.953 274.264 330.644C274.043 330.331 273.77 330.063 273.446 329.838C273.122 329.614 272.753 329.441 272.338 329.318C271.926 329.196 271.47 329.135 270.97 329.135C270.291 329.135 269.688 329.24 269.159 329.45C268.631 329.658 268.185 329.958 267.821 330.35C267.46 330.742 267.186 331.212 266.999 331.76C266.814 332.306 266.722 332.918 266.722 333.597C266.722 334.304 266.817 334.932 267.007 335.48C267.197 336.026 267.479 336.486 267.851 336.861C268.223 337.236 268.683 337.521 269.232 337.718C269.78 337.911 270.412 338.007 271.128 338.007C271.446 338.007 271.759 337.979 272.065 337.922C272.372 337.868 272.645 337.807 272.884 337.739C273.125 337.668 273.305 337.611 273.425 337.568L273.723 338.502C273.547 338.584 273.312 338.665 273.02 338.745C272.73 338.824 272.415 338.889 272.074 338.941C271.736 338.992 271.402 339.017 271.072 339.017ZM270.68 335.472C271.05 335.472 271.347 335.398 271.571 335.25C271.798 335.102 271.962 334.882 272.061 334.59C272.163 334.294 272.214 333.925 272.214 333.482C272.212 333.05 272.156 332.706 272.048 332.45C271.943 332.192 271.778 332.007 271.554 331.896C271.332 331.783 271.047 331.726 270.697 331.726C270.376 331.726 270.102 331.804 269.875 331.96C269.651 332.117 269.479 332.328 269.359 332.595C269.243 332.862 269.183 333.159 269.18 333.486C269.183 333.83 269.232 334.154 269.325 334.458C269.422 334.759 269.578 335.003 269.794 335.191C270.013 335.378 270.308 335.472 270.68 335.472ZM277.572 337.901V329.173H278.889V336.767H282.843V337.901H277.572ZM284.346 337.901V329.173H285.662V336.767H289.617V337.901H284.346ZM298.028 332.012H296.698C296.647 331.727 296.552 331.477 296.413 331.262C296.273 331.046 296.103 330.862 295.901 330.712C295.7 330.561 295.474 330.448 295.224 330.371C294.977 330.294 294.714 330.256 294.435 330.256C293.933 330.256 293.482 330.382 293.085 330.635C292.69 330.888 292.377 331.259 292.147 331.747C291.92 332.236 291.806 332.833 291.806 333.537C291.806 334.247 291.92 334.847 292.147 335.335C292.377 335.824 292.691 336.193 293.089 336.443C293.487 336.693 293.934 336.818 294.431 336.818C294.707 336.818 294.968 336.781 295.215 336.708C295.465 336.631 295.691 336.519 295.893 336.371C296.094 336.223 296.265 336.043 296.404 335.83C296.546 335.614 296.644 335.367 296.698 335.088L298.028 335.093C297.957 335.521 297.819 335.916 297.614 336.277C297.413 336.635 297.153 336.945 296.835 337.206C296.519 337.465 296.158 337.665 295.752 337.807C295.346 337.949 294.903 338.02 294.423 338.02C293.667 338.02 292.994 337.841 292.403 337.483C291.812 337.122 291.346 336.607 291.005 335.936C290.667 335.266 290.498 334.466 290.498 333.537C290.498 332.605 290.668 331.806 291.009 331.138C291.35 330.468 291.816 329.953 292.407 329.595C292.998 329.235 293.67 329.054 294.423 329.054C294.886 329.054 295.317 329.121 295.718 329.254C296.121 329.385 296.484 329.578 296.805 329.834C297.126 330.087 297.391 330.396 297.602 330.763C297.812 331.127 297.954 331.543 298.028 332.012ZM302.258 338.033C301.645 338.033 301.109 337.892 300.652 337.611C300.194 337.33 299.839 336.936 299.586 336.431C299.333 335.925 299.207 335.334 299.207 334.658C299.207 333.979 299.333 333.385 299.586 332.877C299.839 332.368 300.194 331.973 300.652 331.692C301.109 331.411 301.645 331.27 302.258 331.27C302.872 331.27 303.407 331.411 303.865 331.692C304.322 331.973 304.677 332.368 304.93 332.877C305.183 333.385 305.309 333.979 305.309 334.658C305.309 335.334 305.183 335.925 304.93 336.431C304.677 336.936 304.322 337.33 303.865 337.611C303.407 337.892 302.872 338.033 302.258 338.033ZM302.262 336.963C302.66 336.963 302.99 336.858 303.251 336.648C303.512 336.438 303.706 336.158 303.831 335.808C303.958 335.459 304.022 335.074 304.022 334.654C304.022 334.236 303.958 333.852 303.831 333.503C303.706 333.151 303.512 332.868 303.251 332.655C302.99 332.442 302.66 332.335 302.262 332.335C301.862 332.335 301.529 332.442 301.265 332.655C301.004 332.868 300.809 333.151 300.681 333.503C300.556 333.852 300.494 334.236 300.494 334.654C300.494 335.074 300.556 335.459 300.681 335.808C300.809 336.158 301.004 336.438 301.265 336.648C301.529 336.858 301.862 336.963 302.262 336.963ZM309.489 338.033C308.875 338.033 308.339 337.892 307.882 337.611C307.425 337.33 307.07 336.936 306.817 336.431C306.564 335.925 306.438 335.334 306.438 334.658C306.438 333.979 306.564 333.385 306.817 332.877C307.07 332.368 307.425 331.973 307.882 331.692C308.339 331.411 308.875 331.27 309.489 331.27C310.102 331.27 310.638 331.411 311.095 331.692C311.553 331.973 311.908 332.368 312.161 332.877C312.413 333.385 312.54 333.979 312.54 334.658C312.54 335.334 312.413 335.925 312.161 336.431C311.908 336.936 311.553 337.33 311.095 337.611C310.638 337.892 310.102 338.033 309.489 338.033ZM309.493 336.963C309.891 336.963 310.22 336.858 310.482 336.648C310.743 336.438 310.936 336.158 311.061 335.808C311.189 335.459 311.253 335.074 311.253 334.654C311.253 334.236 311.189 333.852 311.061 333.503C310.936 333.151 310.743 332.868 310.482 332.655C310.22 332.442 309.891 332.335 309.493 332.335C309.092 332.335 308.76 332.442 308.496 332.655C308.234 332.868 308.04 333.151 307.912 333.503C307.787 333.852 307.724 334.236 307.724 334.654C307.724 335.074 307.787 335.459 307.912 335.808C308.04 336.158 308.234 336.438 308.496 336.648C308.76 336.858 309.092 336.963 309.493 336.963ZM315.236 329.173V337.901H313.962V329.173H315.236ZM324.301 332.012H322.972C322.92 331.727 322.825 331.477 322.686 331.262C322.547 331.046 322.376 330.862 322.175 330.712C321.973 330.561 321.747 330.448 321.497 330.371C321.25 330.294 320.987 330.256 320.709 330.256C320.206 330.256 319.756 330.382 319.358 330.635C318.963 330.888 318.651 331.259 318.42 331.747C318.193 332.236 318.08 332.833 318.08 333.537C318.08 334.247 318.193 334.847 318.42 335.335C318.651 335.824 318.964 336.193 319.362 336.443C319.76 336.693 320.207 336.818 320.705 336.818C320.98 336.818 321.241 336.781 321.489 336.708C321.739 336.631 321.964 336.519 322.166 336.371C322.368 336.223 322.538 336.043 322.678 335.83C322.82 335.614 322.918 335.367 322.972 335.088L324.301 335.093C324.23 335.521 324.092 335.916 323.888 336.277C323.686 336.635 323.426 336.945 323.108 337.206C322.793 337.465 322.432 337.665 322.026 337.807C321.619 337.949 321.176 338.02 320.696 338.02C319.94 338.02 319.267 337.841 318.676 337.483C318.085 337.122 317.619 336.607 317.278 335.936C316.94 335.266 316.771 334.466 316.771 333.537C316.771 332.605 316.942 331.806 317.283 331.138C317.624 330.468 318.089 329.953 318.68 329.595C319.271 329.235 319.943 329.054 320.696 329.054C321.159 329.054 321.591 329.121 321.991 329.254C322.395 329.385 322.757 329.578 323.078 329.834C323.399 330.087 323.665 330.396 323.875 330.763C324.085 331.127 324.227 331.543 324.301 332.012ZM327.049 334.014V337.901H325.775V329.173H327.032V332.421H327.113C327.266 332.068 327.5 331.789 327.816 331.581C328.131 331.374 328.543 331.27 329.051 331.27C329.5 331.27 329.892 331.362 330.228 331.547C330.566 331.732 330.827 332.007 331.012 332.374C331.199 332.737 331.293 333.192 331.293 333.737V337.901H330.019V333.891C330.019 333.411 329.895 333.039 329.648 332.774C329.401 332.507 329.057 332.374 328.617 332.374C328.316 332.374 328.046 332.438 327.807 332.566C327.571 332.693 327.385 332.881 327.249 333.128C327.115 333.372 327.049 333.668 327.049 334.014ZM332.993 337.901V331.355H334.225V332.395H334.293C334.412 332.043 334.623 331.766 334.924 331.564C335.228 331.36 335.571 331.257 335.955 331.257C336.034 331.257 336.128 331.26 336.236 331.266C336.347 331.271 336.434 331.279 336.496 331.287V332.506C336.445 332.492 336.354 332.476 336.223 332.459C336.093 332.439 335.962 332.429 335.831 332.429C335.53 332.429 335.262 332.493 335.026 332.621C334.793 332.746 334.608 332.921 334.472 333.145C334.336 333.367 334.267 333.62 334.267 333.904V337.901H332.993ZM337.599 337.901V331.355H338.873V337.901H337.599ZM338.242 330.345C338.021 330.345 337.83 330.271 337.671 330.124C337.515 329.973 337.437 329.794 337.437 329.587C337.437 329.377 337.515 329.198 337.671 329.05C337.83 328.899 338.021 328.824 338.242 328.824C338.464 328.824 338.653 328.899 338.809 329.05C338.968 329.198 339.048 329.377 339.048 329.587C339.048 329.794 338.968 329.973 338.809 330.124C338.653 330.271 338.464 330.345 338.242 330.345ZM345.492 332.953L344.337 333.158C344.289 333.01 344.212 332.87 344.107 332.736C344.005 332.602 343.865 332.493 343.689 332.408C343.513 332.323 343.293 332.28 343.029 332.28C342.668 332.28 342.367 332.361 342.125 332.523C341.884 332.682 341.763 332.888 341.763 333.141C341.763 333.36 341.844 333.536 342.006 333.669C342.168 333.803 342.429 333.912 342.79 333.997L343.83 334.236C344.432 334.375 344.881 334.59 345.176 334.879C345.472 335.169 345.62 335.546 345.62 336.009C345.62 336.401 345.506 336.75 345.279 337.057C345.054 337.361 344.74 337.6 344.337 337.773C343.936 337.946 343.472 338.033 342.944 338.033C342.211 338.033 341.613 337.877 341.15 337.564C340.686 337.249 340.402 336.801 340.297 336.222L341.529 336.034C341.605 336.355 341.763 336.598 342.002 336.763C342.24 336.925 342.551 337.006 342.935 337.006C343.353 337.006 343.686 336.919 343.936 336.746C344.186 336.57 344.311 336.355 344.311 336.102C344.311 335.898 344.235 335.726 344.081 335.587C343.931 335.448 343.699 335.343 343.387 335.271L342.279 335.029C341.668 334.889 341.216 334.668 340.924 334.364C340.634 334.06 340.489 333.675 340.489 333.209C340.489 332.823 340.597 332.485 340.813 332.195C341.029 331.905 341.327 331.679 341.708 331.517C342.088 331.352 342.525 331.27 343.016 331.27C343.723 331.27 344.28 331.423 344.686 331.73C345.093 332.034 345.361 332.442 345.492 332.953Z" fill="#FEFEFE"/>
<defs>
<filter id="filter0_f_44_2098" x="78.2559" y="71.7908" width="197.665" height="210.994" filterUnits="userSpaceOnUse" color-interpolation-filters="sRGB">
<feFlood flood-opacity="0" result="BackgroundImageFix"/>
<feBlend mode="normal" in="SourceGraphic" in2="BackgroundImageFix" result="shape"/>
<feGaussianBlur stdDeviation="2" result="effect1_foregroundBlur_44_2098"/>
</filter>
<filter id="filter1_f_44_2098" x="83.0566" y="9.07068" width="37.4062" height="39.4625" filterUnits="userSpaceOnUse" color-interpolation-filters="sRGB">
<feFlood flood-opacity="0" result="BackgroundImageFix"/>
<feBlend mode="normal" in="SourceGraphic" in2="BackgroundImageFix" result="shape"/>
<feGaussianBlur stdDeviation="2" result="effect1_foregroundBlur_44_2098"/>
</filter>
<filter id="filter2_f_44_2098" x="83.0605" y="9.05969" width="37.2998" height="39.3501" filterUnits="userSpaceOnUse" color-interpolation-filters="sRGB">
<feFlood flood-opacity="0" result="BackgroundImageFix"/>
<feBlend mode="normal" in="SourceGraphic" in2="BackgroundImageFix" result="shape"/>
<feGaussianBlur stdDeviation="2" result="effect1_foregroundBlur_44_2098"/>
</filter>
<filter id="filter3_f_44_2098" x="224.52" y="309.854" width="37.1924" height="39.2449" filterUnits="userSpaceOnUse" color-interpolation-filters="sRGB">
<feFlood flood-opacity="0" result="BackgroundImageFix"/>
<feBlend mode="normal" in="SourceGraphic" in2="BackgroundImageFix" result="shape"/>
<feGaussianBlur stdDeviation="2" result="effect1_foregroundBlur_44_2098"/>
</filter>
<filter id="filter4_d_44_2098" x="270.396" y="191.055" width="13.7325" height="13.8507" filterUnits="userSpaceOnUse" color-interpolation-filters="sRGB">
<feFlood flood-opacity="0" result="BackgroundImageFix"/>
<feColorMatrix in="SourceAlpha" type="matrix" values="0 0 0 0 0 0 0 0 0 0 0 0 0 0 0 0 0 0 127 0" result="hardAlpha"/>
<feOffset dy="0.631858"/>
<feGaussianBlur stdDeviation="0.631858"/>
<feComposite in2="hardAlpha" operator="out"/>
<feColorMatrix type="matrix" values="0 0 0 0 0 0 0 0 0 0 0 0 0 0 0 0 0 0 0.25 0"/>
<feBlend mode="normal" in2="BackgroundImageFix" result="effect1_dropShadow_44_2098"/>
<feBlend mode="normal" in="SourceGraphic" in2="effect1_dropShadow_44_2098" result="shape"/>
</filter>
<filter id="filter5_d_44_2098" x="115.735" y="281.771" width="12.4405" height="12.5461" filterUnits="userSpaceOnUse" color-interpolation-filters="sRGB">
<feFlood flood-opacity="0" result="BackgroundImageFix"/>
<feColorMatrix in="SourceAlpha" type="matrix" values="0 0 0 0 0 0 0 0 0 0 0 0 0 0 0 0 0 0 127 0" result="hardAlpha"/>
<feOffset dy="0.631858"/>
<feGaussianBlur stdDeviation="0.631858"/>
<feComposite in2="hardAlpha" operator="out"/>
<feColorMatrix type="matrix" values="0 0 0 0 0 0 0 0 0 0 0 0 0 0 0 0 0 0 0.25 0"/>
<feBlend mode="normal" in2="BackgroundImageFix" result="effect1_dropShadow_44_2098"/>
<feBlend mode="normal" in="SourceGraphic" in2="effect1_dropShadow_44_2098" result="shape"/>
</filter>
<filter id="filter6_d_44_2098" x="242.396" y="308.28" width="13.7325" height="13.8507" filterUnits="userSpaceOnUse" color-interpolation-filters="sRGB">
<feFlood flood-opacity="0" result="BackgroundImageFix"/>
<feColorMatrix in="SourceAlpha" type="matrix" values="0 0 0 0 0 0 0 0 0 0 0 0 0 0 0 0 0 0 127 0" result="hardAlpha"/>
<feOffset dy="0.631858"/>
<feGaussianBlur stdDeviation="0.631858"/>
<feComposite in2="hardAlpha" operator="out"/>
<feColorMatrix type="matrix" values="0 0 0 0 0 0 0 0 0 0 0 0 0 0 0 0 0 0 0.25 0"/>
<feBlend mode="normal" in2="BackgroundImageFix" result="effect1_dropShadow_44_2098"/>
<feBlend mode="normal" in="SourceGraphic" in2="effect1_dropShadow_44_2098" result="shape"/>
</filter>
</defs>
</svg>
