<svg width="52" height="52" viewBox="0 0 52 52" fill="none" xmlns="http://www.w3.org/2000/svg">
<path d="M2.46752 44.505C0.986455 41.8722 1.92012 38.5373 4.55291 37.0562C7.18571 35.5751 10.5206 36.5088 12.0017 39.1416L12.0912 39.3007C13.5723 41.9335 12.6386 45.2684 10.0058 46.7495C7.37302 48.2306 4.03808 47.2969 2.55702 44.6641L2.46752 44.505Z" fill="#EBEDFF"/>
<path d="M40.8689 22.9022C39.3879 20.2694 40.3215 16.9345 42.9543 15.4534C45.5871 13.9724 48.9221 14.906 50.4031 17.5388L50.4926 17.6979C51.9737 20.3307 51.04 23.6657 48.4072 25.1467C45.7744 26.6278 42.4395 25.6941 40.9584 23.0613L40.8689 22.9022Z" fill="#EBEDFF"/>
<path d="M17.4993 48.9138C15.9935 46.2371 16.9428 42.8465 19.6195 41.3407L38.7936 30.5545C41.4703 29.0487 44.8609 29.9979 46.3667 32.6747C47.8725 35.3514 46.9232 38.742 44.2465 40.2478L25.0724 51.034C22.3957 52.5398 19.0051 51.5906 17.4993 48.9138Z" fill="#EBEDFF"/>
<path d="M0.844786 19.3071C-0.636274 16.6743 0.297389 13.3394 2.93018 11.8583C5.56298 10.3773 8.89791 11.3109 10.379 13.9437L10.4685 14.1028C11.9495 16.7356 11.0159 20.0706 8.38308 21.5516C5.75029 23.0327 2.41535 22.099 0.934291 19.4662L0.844786 19.3071Z" fill="#EBEDFF"/>
<path d="M20.1797 8.43083C18.6986 5.79804 19.6323 2.4631 22.2651 0.98204C24.8978 -0.49902 28.2328 0.434646 29.7138 3.06744L29.8033 3.22655C31.2844 5.85934 30.3507 9.19428 27.718 10.6753C25.0852 12.1564 21.7502 11.2227 20.2692 8.58994L20.1797 8.43083Z" fill="#EBEDFF"/>
</svg>
